<?xml version="1.0" encoding="UTF-8"?>
<svg xmlns="http://www.w3.org/2000/svg" viewBox="0 0 1200 630" width="1200" height="630">
  <defs>
    <linearGradient id="g25835" x1="96.98463103929541%" y1="32.898992833716555%" x2="3.015368960704585%" y2="67.10100716628344%">
      <stop offset="0%" stop-color="#1E40AF"/>
      <stop offset="100%" stop-color="#1E3A8A"/>
    </linearGradient>
  </defs>
  <rect width="1200" height="630" fill="url(#g25835)"/>
  <path d="M 80 287.65358078759164 L 80 287.65358078759164 L 88 287.65358078759164 L 96 287.65358078759164 L 104 287.65358078759164 L 112 287.65358078759164 L 120 287.65358078759164 L 128 287.65358078759164 L 136 287.65358078759164 L 144 287.65358078759164 L 152 287.65358078759164 L 160 287.65358078759164 L 168 287.65358078759164 L 176 287.65358078759164 L 184 287.65358078759164 L 192 287.65358078759164 L 200 287.65358078759164 L 208 287.65358078759164 L 216 287.65358078759164 L 224 287.65358078759164 L 232 287.65358078759164 L 240 287.65358078759164 L 248 287.65358078759164 L 256 248.2885536469325 L 264 211.02093889902423 L 272 234.31336660298095 L 280 287.65358078759164 L 288 287.65358078759164 L 296 287.65358078759164 L 304 287.65358078759164 L 312 287.65358078759164 L 320 287.65358078759164 L 328 287.65358078759164 L 336 287.65358078759164 L 344 287.65358078759164 L 352 287.65358078759164 L 360 287.65358078759164 L 368 287.65358078759164 L 376 287.65358078759164 L 384 287.65358078759164 L 392 287.65358078759164 L 400 287.65358078759164 L 408 287.65358078759164 L 416 287.65358078759164 L 424 287.65358078759164 L 432 287.65358078759164 L 440 287.65358078759164 L 448 287.65358078759164 L 456 287.65358078759164 L 464 287.65358078759164 L 472 287.65358078759164 L 480 287.65358078759164 L 488 287.65358078759164 L 496 287.65358078759164 L 504 258.8081668132604 L 512 215.4980544569953 L 520 210.04466551008238 L 528 273.7595984131258 L 536 287.65358078759164 L 544 287.65358078759164 L 552 287.65358078759164 L 560 287.65358078759164 L 568 287.65358078759164 L 576 287.65358078759164 L 584 287.65358078759164 L 592 287.65358078759164 L 600 287.65358078759164 L 608 287.65358078759164 L 616 287.65358078759164 L 624 287.65358078759164 L 632 287.65358078759164 L 640 287.65358078759164 L 648 287.65358078759164 L 656 287.65358078759164 L 664 287.65358078759164 L 672 287.65358078759164 L 680 287.65358078759164 L 688 287.65358078759164 L 696 287.65358078759164 L 704 287.65358078759164 L 712 287.65358078759164 L 720 287.65358078759164 L 728 287.65358078759164 L 736 287.65358078759164 L 744 287.65358078759164 L 752 269.10259665164864 L 760 222.74450823091684 L 768 219.68643603414824 L 776 253.55329625126868 L 784 287.65358078759164 L 792 287.65358078759164 L 800 287.65358078759164 L 808 287.65358078759164 L 816 287.65358078759164 L 824 287.65358078759164 L 832 287.65358078759164 L 840 287.65358078759164 L 848 287.65358078759164 L 856 287.65358078759164 L 864 287.65358078759164 L 872 287.65358078759164 L 880 287.65358078759164 L 888 287.65358078759164 L 896 287.65358078759164 L 904 287.65358078759164 L 912 287.65358078759164 L 920 287.65358078759164 L 928 287.65358078759164 L 936 287.65358078759164 L 944 287.65358078759164 L 952 287.65358078759164 L 960 287.65358078759164 L 968 287.65358078759164 L 976 287.65358078759164 L 984 287.65358078759164 L 992 287.65358078759164 L 1000 287.65358078759164 L 1008 220.2462102758073 L 1016 204.95805754363886 L 1024 231.69958766371212 L 1032 287.65358078759164 L 1040 287.65358078759164 L 1048 287.65358078759164 L 1056 287.65358078759164 L 1064 287.65358078759164 L 1072 287.65358078759164 L 1080 287.65358078759164 L 1088 287.65358078759164 L 1096 287.65358078759164 L 1104 287.65358078759164 L 1112 287.65358078759164 L 1120 287.65358078759164" fill="none" stroke="rgba(255,255,255,0.18)" stroke-width="2.5"/><rect x="265.47645089402795" y="191.1894547753036" width="24" height="80" rx="4" fill="rgba(255,255,255,0.1)"/><rect x="237.47645089402795" y="219.1894547753036" width="80" height="24" rx="4" fill="rgba(255,255,255,0.1)"/><path d="M 990.8932102844119 213.5964708402753 C 990.8932102844119 198.5964708402753 955.8932102844119 163.5964708402753 955.8932102844119 178.5964708402753 C 955.8932102844119 193.5964708402753 990.8932102844119 208.5964708402753 990.8932102844119 228.5964708402753 C 990.8932102844119 208.5964708402753 1025.893210284412 193.5964708402753 1025.893210284412 178.5964708402753 C 1025.893210284412 163.5964708402753 990.8932102844119 198.5964708402753 990.8932102844119 213.5964708402753 Z" fill="rgba(255,255,255,0.08)" stroke="rgba(255,255,255,0.15)" stroke-width="1.5"/><circle cx="418.8119909958914" cy="528.9407779602334" r="27.727018244797364" fill="none" stroke="rgba(255,255,255,0.1223260523751378)" stroke-width="1.5"/><circle cx="295.6914346665144" cy="520.4398276656866" r="15.943177621113136" fill="none" stroke="rgba(255,255,255,0.09428251557052136)" stroke-width="1.5"/><circle cx="467.8471760591492" cy="521.7445215629414" r="24.347775511443615" fill="none" stroke="rgba(255,255,255,0.13416785461828112)" stroke-width="1.5"/><circle cx="345.12546001933515" cy="411.1294102529064" r="13.869728695601225" fill="none" stroke="rgba(255,255,255,0.10984249839559197)" stroke-width="1.5"/>
  <circle cx="65.42256167158484" cy="584.943347722292" r="2.579605100210756" fill="rgba(255,255,255,0.03918870994355529)"/><circle cx="743.1222472339869" cy="117.97484367387369" r="1.7726819273084402" fill="rgba(255,255,255,0.06958379302639514)"/><circle cx="538.2939264178276" cy="186.14994663046673" r="2.965423687361181" fill="rgba(255,255,255,0.06179251636611298)"/><circle cx="569.5580299012363" cy="425.48331185476854" r="2.3200963134877384" fill="rgba(255,255,255,0.037065755932126195)"/><circle cx="224.17609691619873" cy="85.65949290292338" r="1.0573720778338611" fill="rgba(255,255,255,0.0397444832441397)"/><circle cx="1045.558922085911" cy="188.2484553521499" r="1.218006409239024" fill="rgba(255,255,255,0.0754307411564514)"/><circle cx="599.4603093713522" cy="147.62217458803207" r="2.4897082676179707" fill="rgba(255,255,255,0.04284228320000693)"/><circle cx="850.4623806104064" cy="380.5525104794651" r="1.6208274206146598" fill="rgba(255,255,255,0.043667429995257405)"/><circle cx="1198.7307080067694" cy="297.63760465197265" r="2.3640660950914025" fill="rgba(255,255,255,0.043975984114222225)"/><circle cx="358.5718285292387" cy="167.23359978524968" r="1.9242227883078158" fill="rgba(255,255,255,0.06351104854373261)"/><circle cx="1022.1477339975536" cy="515.1660033641383" r="2.1738129146397114" fill="rgba(255,255,255,0.03890054602641612)"/><circle cx="347.74200757965446" cy="48.3170214202255" r="2.657901002559811" fill="rgba(255,255,255,0.062052664482034746)"/>
  <text x="600" y="335" font-family="system-ui, -apple-system, 'Segoe UI', sans-serif" font-size="68" font-weight="700" fill="rgba(0,0,0,0.15)" text-anchor="middle" letter-spacing="1">HESI A2</text>
  <text x="600" y="332" font-family="system-ui, -apple-system, 'Segoe UI', sans-serif" font-size="68" font-weight="700" fill="white" text-anchor="middle" letter-spacing="1">HESI A2</text>
  <g transform="translate(1140, 575)">
    <rect x="0" y="0" width="40" height="40" rx="8" fill="rgba(255,255,255,0.15)"/>
    <text x="20" y="29" font-family="sans-serif" font-weight="bold" font-size="24" fill="rgba(255,255,255,0.6)" text-anchor="middle">K</text>
  </g>
</svg>